<?xml version="1.0" encoding="UTF-8"?>
<svg height="800.0" width="700.0" xmlns="http://www.w3.org/2000/svg">
 <g title="org.xmlcml.svg2xml.page.MixedAnalyzer2" id="g.1.5" transform="matrix(1.0,0.0,0.0,1.0,-56.693,-711.022)">
  <g>
   <path stroke="black" fill="#15ffea" stroke-width="0.0" svgx:z="149" d="M73.07 711.022 C76.575 712.739 78.982 716.292 78.982 720.395 C78.982 726.179 74.234 730.757 68.338 730.757 C66.203 730.757 63.891 729.533 63.891 729.533 C65.083 730.097 66.42 730.411 67.831 730.411 C72.854 730.411 76.925 726.418 76.925 721.491 C76.925 717.957 74.831 714.903 71.793 713.46 L73.07 711.022 " xmlns:svgx="http://www.xml-cml.org/schema/svgx"/>
   <path stroke="black" fill="#aef9ff" stroke-width="0.0" svgx:z="148" d="M62.606 731.971 C59.101 730.255 56.693 726.702 56.693 722.597 C56.693 716.813 61.441 712.237 67.338 712.237 C69.473 712.237 71.785 713.459 71.785 713.459 C70.593 712.897 69.256 712.581 67.845 712.581 C62.822 712.581 58.751 716.575 58.751 721.502 C58.751 725.036 60.845 728.09 63.884 729.535 L62.606 731.971 " xmlns:svgx="http://www.xml-cml.org/schema/svgx"/>
   <polyline fill="#aef9ff" stroke="black" stroke-width="0.0" svgx:z="151" id="polyline.2" points="91.859 719.694 94.906 719.694 94.906 725.874 91.859 725.874 91.859 719.694 94.906 719.041 91.859 719.041 91.859 716.978 94.906 716.978 94.906 719.041" xmlns:svgx="http://www.xml-cml.org/schema/svgx"/>
   <path stroke="black" fill="#15ffea" stroke-width="0.0" svgx:z="155" d="M126.977 721.402 C126.336 721.402 126.227 722.042 126.227 722.683 C126.227 723.334 126.336 724.023 127.002 724.023 C127.654 724.023 127.751 723.334 127.751 722.753 C127.751 722.042 127.654 721.402 126.977 721.402 ZM127.884 725.874 L127.884 724.746 L127.86 724.746 C127.437 725.672 126.82 726.015 125.828 726.015 C123.809 726.015 123.059 724.474 123.059 722.683 C123.059 721.011 123.845 719.552 125.744 719.552 C126.554 719.552 127.17 719.824 127.643 720.489 L127.666 720.489 L127.666 716.978 L130.713 716.978 L130.713 725.874 L127.884 725.874 " xmlns:svgx="http://www.xml-cml.org/schema/svgx"/>
   <path stroke="black" fill="#000000" stroke-width="0.0" svgx:z="156" d="M140.138 725.357 C139.728 725.574 138.944 725.779 137.955 725.779 C135.989 725.779 134.108 724.513 134.108 721.631 C134.108 719.218 135.663 717.385 138.22 717.385 C139.257 717.385 139.861 717.614 140.114 717.747 L139.921 718.229 C139.511 718.024 138.92 717.88 138.232 717.88 C136.037 717.88 134.699 719.303 134.699 721.642 C134.699 723.849 135.965 725.273 138.136 725.273 C138.835 725.273 139.511 725.128 139.969 724.899 L140.138 725.357 " xmlns:svgx="http://www.xml-cml.org/schema/svgx"/>
   <path fill="none" stroke="#000000" stroke-width="0.2150000035762787" svgx:z="157" d="M140.138 725.357 C139.728 725.574 138.944 725.779 137.955 725.779 C135.989 725.779 134.108 724.513 134.108 721.631 C134.108 719.218 135.663 717.385 138.22 717.385 C139.257 717.385 139.861 717.614 140.114 717.747 L139.921 718.229 C139.511 718.024 138.92 717.88 138.232 717.88 C136.037 717.88 134.699 719.303 134.699 721.642 C134.699 723.849 135.965 725.273 138.136 725.273 C138.835 725.273 139.511 725.128 139.969 724.899 L140.138 725.357 Z" xmlns:svgx="http://www.xml-cml.org/schema/svgx"/>
   <rect fill="#000000" stroke="black" stroke-width="0.0" svgx:z="170" id="rect.6" x="165.627" y="717.084" height="8.563" width="0.567" xmlns:svgx="http://www.xml-cml.org/schema/svgx"/>
   <rect fill="none" stroke="#000000" stroke-width="0.2150000035762787" svgx:z="171" id="rect.7" x="165.627" y="717.084" height="8.563" width="0.567" xmlns:svgx="http://www.xml-cml.org/schema/svgx"/>
   <path stroke="black" fill="#aef9ff" stroke-width="0.0" svgx:z="150" d="M86.103 724.165 L86.95 724.165 C87.542 724.165 88.183 723.951 88.183 723.31 C88.183 722.6 87.578 722.469 86.973 722.469 L86.103 722.469 L86.103 724.165 ZM86.103 720.761 L86.913 720.761 C87.481 720.761 88.098 720.595 88.098 719.966 C88.098 719.349 87.566 719.16 86.985 719.16 L86.103 719.16 L86.103 720.761 ZM83.056 717.595 L88.364 717.595 C89.827 717.595 91.266 718.056 91.266 719.634 C91.266 720.773 90.649 721.378 89.525 721.662 L89.525 721.687 C90.698 721.841 91.423 722.741 91.423 723.572 C91.423 725.659 89.706 725.874 87.953 725.874 L83.056 725.874 L83.056 717.595 " xmlns:svgx="http://www.xml-cml.org/schema/svgx"/>
   <polygon fill="#15ffea" stroke="black" stroke-width="0.0" svgx:z="153" id="polygon.9" points="103.803 717.595 108.591 717.595 109.692 722.125 109.716 722.125 110.804 717.595 115.58 717.595 115.58 725.874 112.679 725.874 112.63 719.373 112.606 719.373 110.95 725.874 108.253 725.874 106.644 719.373 106.596 719.373 106.559 725.874 103.803 725.874" xmlns:svgx="http://www.xml-cml.org/schema/svgx"/>
   <path stroke="black" fill="#000000" stroke-width="0.0" svgx:z="163" d="M154.136 718.579 L154.136 719.857 L155.788 719.857 L155.788 720.316 L154.136 720.316 L154.136 724.079 C154.136 724.814 154.365 725.285 154.98 725.285 C155.282 725.285 155.499 725.236 155.644 725.188 L155.716 725.634 C155.523 725.719 155.258 725.779 154.908 725.779 C154.486 725.779 154.136 725.634 153.919 725.357 C153.654 725.056 153.557 724.573 153.557 723.982 L153.557 720.316 L152.58 720.316 L152.58 719.857 L153.557 719.857 L153.557 718.796 L154.136 718.579 " xmlns:svgx="http://www.xml-cml.org/schema/svgx"/>
   <path fill="none" stroke="#000000" stroke-width="0.2150000035762787" svgx:z="164" d="M154.136 718.579 L154.136 719.857 L155.788 719.857 L155.788 720.316 L154.136 720.316 L154.136 724.079 C154.136 724.814 154.365 725.285 154.98 725.285 C155.282 725.285 155.499 725.236 155.644 725.188 L155.716 725.634 C155.523 725.719 155.258 725.779 154.908 725.779 C154.486 725.779 154.136 725.634 153.919 725.357 C153.654 725.056 153.557 724.573 153.557 723.982 L153.557 720.316 L152.58 720.316 L152.58 719.857 L153.557 719.857 L153.557 718.796 L154.136 718.579 Z" xmlns:svgx="http://www.xml-cml.org/schema/svgx"/>
   <path stroke="black" fill="#aef9ff" stroke-width="0.0" svgx:z="152" d="M99.041 724.236 C99.634 724.236 99.718 723.572 99.718 722.67 C99.718 721.935 99.634 721.33 99.041 721.33 C98.449 721.33 98.376 721.935 98.376 722.67 C98.376 723.572 98.449 724.236 99.041 724.236 ZM99.041 719.552 C101.58 719.552 102.959 720.595 102.959 722.67 C102.959 724.806 101.58 726.015 99.041 726.015 C96.49 726.015 95.136 724.806 95.136 722.67 C95.136 720.595 96.49 719.552 99.041 719.552 " xmlns:svgx="http://www.xml-cml.org/schema/svgx"/>
   <path stroke="black" fill="#15ffea" stroke-width="0.0" svgx:z="154" d="M120.355 722.196 C120.355 721.721 120.283 720.975 119.594 720.975 C118.892 720.975 118.735 721.711 118.772 722.196 L120.355 722.196 ZM118.784 723.501 C118.832 724.272 119.569 724.45 120.464 724.45 C121.298 724.45 122.049 724.308 122.532 724.058 L122.532 725.659 C121.722 725.908 120.754 726.015 119.69 726.015 C117.139 726.015 115.785 724.806 115.785 722.671 C115.785 720.596 117.139 719.552 119.69 719.552 C122.133 719.552 122.991 721.046 122.991 723.133 L122.991 723.501 L118.784 723.501 " xmlns:svgx="http://www.xml-cml.org/schema/svgx"/>
   <path stroke="black" fill="#000000" stroke-width="0.0" svgx:z="158" d="M145.117 722.233 C145.129 721.425 144.792 720.195 143.392 720.195 C142.114 720.195 141.56 721.341 141.463 722.233 L145.117 722.233 ZM141.427 722.691 C141.427 724.549 142.44 725.272 143.634 725.272 C144.478 725.272 144.912 725.103 145.238 724.946 L145.382 725.405 C145.165 725.526 144.574 725.779 143.561 725.779 C141.897 725.779 140.86 724.561 140.86 722.86 C140.86 720.93 141.969 719.725 143.465 719.725 C145.358 719.725 145.72 721.509 145.72 722.342 C145.72 722.498 145.72 722.595 145.696 722.691 L141.427 722.691 " xmlns:svgx="http://www.xml-cml.org/schema/svgx"/>
   <path fill="none" stroke="#000000" stroke-width="0.2150000035762787" svgx:z="160" d="M141.427 722.691 C141.427 724.548 142.44 725.272 143.634 725.272 C144.478 725.272 144.912 725.103 145.238 724.946 L145.383 725.405 C145.166 725.526 144.575 725.778 143.562 725.778 C141.897 725.778 140.86 724.56 140.86 722.86 C140.86 720.93 141.97 719.724 143.465 719.724 C145.359 719.724 145.721 721.509 145.721 722.341 C145.721 722.498 145.721 722.595 145.697 722.691 L141.427 722.691 Z" xmlns:svgx="http://www.xml-cml.org/schema/svgx"/>
   <path fill="none" stroke="#000000" stroke-width="0.2150000035762787" svgx:z="159" d="M145.117 722.233 C145.129 721.425 144.792 720.195 143.392 720.195 C142.114 720.195 141.56 721.341 141.463 722.233 L145.117 722.233 Z" xmlns:svgx="http://www.xml-cml.org/schema/svgx"/>
   <path stroke="black" fill="#000000" stroke-width="0.0" svgx:z="161" d="M147.034 721.245 C147.034 720.714 147.01 720.316 146.986 719.858 L147.517 719.858 L147.565 720.907 L147.589 720.907 C147.902 720.256 148.626 719.725 149.579 719.725 C150.134 719.725 151.593 720.003 151.593 722.174 L151.593 725.647 L151.026 725.647 L151.026 722.222 C151.026 721.172 150.616 720.22 149.422 720.22 C148.602 720.22 147.915 720.799 147.685 721.546 C147.637 721.691 147.601 721.884 147.601 722.065 L147.601 725.647 L147.034 725.647 L147.034 721.245 " xmlns:svgx="http://www.xml-cml.org/schema/svgx"/>
   <path fill="none" stroke="#000000" stroke-width="0.2150000035762787" svgx:z="162" d="M147.034 721.245 C147.034 720.714 147.01 720.316 146.986 719.858 L147.517 719.858 L147.565 720.907 L147.589 720.907 C147.902 720.256 148.626 719.725 149.579 719.725 C150.134 719.725 151.593 720.003 151.593 722.174 L151.593 725.647 L151.026 725.647 L151.026 722.222 C151.026 721.172 150.616 720.22 149.422 720.22 C148.602 720.22 147.915 720.799 147.685 721.546 C147.637 721.691 147.601 721.884 147.601 722.065 L147.601 725.647 L147.034 725.647 L147.034 721.245 Z" xmlns:svgx="http://www.xml-cml.org/schema/svgx"/>
   <path stroke="black" fill="#000000" stroke-width="0.0" svgx:z="165" d="M156.909 721.594 C156.909 721.015 156.885 720.412 156.861 719.857 L157.391 719.857 L157.415 721.027 L157.44 721.027 C157.693 720.304 158.296 719.725 159.092 719.725 C159.164 719.725 159.249 719.737 159.321 719.749 L159.321 720.304 C159.237 720.28 159.152 720.28 159.044 720.28 C158.248 720.28 157.681 720.967 157.524 721.896 C157.5 722.064 157.476 722.257 157.476 722.45 L157.476 725.646 L156.909 725.646 L156.909 721.594 " xmlns:svgx="http://www.xml-cml.org/schema/svgx"/>
   <path fill="none" stroke="#000000" stroke-width="0.2150000035762787" svgx:z="166" d="M156.909 721.594 C156.909 721.015 156.885 720.412 156.861 719.857 L157.391 719.857 L157.415 721.027 L157.44 721.027 C157.693 720.304 158.296 719.725 159.092 719.725 C159.164 719.725 159.249 719.737 159.321 719.749 L159.321 720.304 C159.237 720.28 159.152 720.28 159.044 720.28 C158.248 720.28 157.681 720.967 157.524 721.896 C157.5 722.064 157.476 722.257 157.476 722.45 L157.476 725.646 L156.909 725.646 L156.909 721.594 Z" xmlns:svgx="http://www.xml-cml.org/schema/svgx"/>
   <path stroke="black" fill="#000000" stroke-width="0.0" svgx:z="167" d="M163.337 722.547 C162.071 722.511 160.406 722.704 160.406 724.091 C160.406 724.923 160.961 725.297 161.564 725.297 C162.529 725.297 163.072 724.706 163.277 724.139 C163.313 724.018 163.337 723.898 163.337 723.789 L163.337 722.547 ZM163.904 724.272 C163.904 724.73 163.928 725.2 163.988 725.647 L163.47 725.647 L163.385 724.815 L163.349 724.815 C163.072 725.261 162.433 725.779 161.504 725.779 C160.346 725.779 159.804 724.959 159.804 724.187 C159.804 722.849 160.985 722.041 163.337 722.065 L163.337 721.92 C163.337 721.341 163.228 720.195 161.854 720.208 C161.347 720.208 160.817 720.34 160.406 720.642 L160.225 720.219 C160.744 719.87 161.396 719.725 161.914 719.725 C163.591 719.725 163.904 720.979 163.904 722.017 L163.904 724.272 " xmlns:svgx="http://www.xml-cml.org/schema/svgx"/>
   <path fill="none" stroke="#000000" stroke-width="0.2150000035762787" svgx:z="169" d="M163.904 724.272 C163.904 724.73 163.928 725.201 163.988 725.647 L163.47 725.647 L163.385 724.815 L163.349 724.815 C163.072 725.261 162.433 725.779 161.504 725.779 C160.346 725.779 159.804 724.959 159.804 724.187 C159.804 722.849 160.985 722.041 163.337 722.065 L163.337 721.92 C163.337 721.341 163.228 720.195 161.853 720.208 C161.347 720.208 160.816 720.34 160.406 720.642 L160.225 720.22 C160.744 719.87 161.396 719.725 161.914 719.725 C163.59 719.725 163.904 720.979 163.904 722.017 L163.904 724.272 Z" xmlns:svgx="http://www.xml-cml.org/schema/svgx"/>
   <path fill="none" stroke="#000000" stroke-width="0.2150000035762787" svgx:z="168" d="M163.337 722.547 C162.071 722.511 160.406 722.704 160.406 724.091 C160.406 724.923 160.961 725.297 161.564 725.297 C162.529 725.297 163.072 724.706 163.277 724.139 C163.313 724.018 163.337 723.898 163.337 723.789 L163.337 722.547 Z" xmlns:svgx="http://www.xml-cml.org/schema/svgx"/>
  </g>
  <g>
   <text stroke="none" fill="#000000" svgx:fontName="JNPFFB+AdvOT46dcae81" svgx:width="604.0" font-family="Helvetica" font-weight="bold" svgx:z="172" x="335.622" y="722.077" font-size="7.97" xmlns:svgx="http://www.xml-cml.org/schema/svgx">A</text>
   <text stroke="none" fill="#000000" svgx:fontName="JNPFFB+AdvOT46dcae81" svgx:width="229.0" font-family="Helvetica" font-weight="bold" svgx:z="173" x="340.436" y="722.077" font-size="7.97" xmlns:svgx="http://www.xml-cml.org/schema/svgx">l</text>
   <text stroke="none" fill="#000000" svgx:fontName="JNPFFB+AdvOT46dcae81" svgx:width="833.0" font-family="Helvetica" font-weight="bold" svgx:z="174" x="342.261" y="722.077" font-size="7.97" xmlns:svgx="http://www.xml-cml.org/schema/svgx">m</text>
   <text stroke="none" fill="#000000" svgx:fontName="JNPFFB+AdvOT46dcae81" svgx:width="479.0" font-family="Helvetica" font-weight="bold" svgx:z="175" x="348.9" y="722.077" font-size="7.97" xmlns:svgx="http://www.xml-cml.org/schema/svgx">a</text>
   <text stroke="none" fill="#000000" svgx:fontName="JNPFFB+AdvOT46dcae81" svgx:width="552.0" font-family="Helvetica" font-weight="bold" svgx:z="176" x="352.718" y="722.077" font-size="7.97" xmlns:svgx="http://www.xml-cml.org/schema/svgx">g</text>
   <text stroke="none" fill="#000000" svgx:fontName="JNPFFB+AdvOT46dcae81" svgx:width="541.0" font-family="Helvetica" font-weight="bold" svgx:z="177" x="357.118" y="722.077" font-size="7.97" xmlns:svgx="http://www.xml-cml.org/schema/svgx">u</text>
   <text stroke="none" fill="#000000" svgx:fontName="JNPFFB+AdvOT46dcae81" svgx:width="500.0" font-family="Helvetica" font-weight="bold" svgx:z="178" x="361.43" y="722.077" font-size="7.97" xmlns:svgx="http://www.xml-cml.org/schema/svgx">e</text>
   <text stroke="none" fill="#000000" svgx:fontName="JNPFFB+AdvOT46dcae81" svgx:width="322.0" font-family="Helvetica" font-weight="bold" svgx:z="179" x="365.415" y="722.077" font-size="7.97" xmlns:svgx="http://www.xml-cml.org/schema/svgx">r</text>
   <text stroke="none" fill="#000000" svgx:fontName="JNPFFB+AdvOT46dcae81" svgx:width="302.0" font-family="Helvetica" font-weight="bold" svgx:z="180" x="367.981" y="722.077" font-size="7.97" xmlns:svgx="http://www.xml-cml.org/schema/svgx">-</text>
   <text stroke="none" fill="#000000" svgx:fontName="JNPFFB+AdvOT46dcae81" svgx:width="572.0" font-family="Helvetica" font-weight="bold" svgx:z="181" x="370.388" y="722.077" font-size="7.97" xmlns:svgx="http://www.xml-cml.org/schema/svgx">C</text>
   <text stroke="none" fill="#000000" svgx:fontName="JNPFFB+AdvOT46dcae81" svgx:width="552.0" font-family="Helvetica" font-weight="bold" svgx:z="182" x="374.851" y="722.077" font-size="7.97" xmlns:svgx="http://www.xml-cml.org/schema/svgx">h</text>
   <text stroke="none" fill="#000000" svgx:fontName="JNPFFB+AdvOT46dcae81" svgx:width="479.0" svgx:charName="aacute" svgx:charCode="225" svgx:hexCode="e1" font-family="Helvetica" font-weight="bold" svgx:z="183" x="379.251" y="722.077" font-size="7.97" xmlns:svgx="http://www.xml-cml.org/schema/svgx">รก</text>
   <text stroke="none" fill="#000000" svgx:fontName="JNPFFB+AdvOT46dcae81" svgx:width="479.0" font-family="Helvetica" font-weight="bold" svgx:z="184" x="383.069" y="722.077" font-size="7.97" xmlns:svgx="http://www.xml-cml.org/schema/svgx">v</text>
   <text stroke="none" fill="#000000" svgx:fontName="JNPFFB+AdvOT46dcae81" svgx:width="500.0" font-family="Helvetica" font-weight="bold" svgx:z="185" x="386.886" y="722.077" font-size="7.97" xmlns:svgx="http://www.xml-cml.org/schema/svgx">e</text>
   <text stroke="none" fill="#000000" svgx:fontName="JNPFFB+AdvOT46dcae81" svgx:width="427.0" font-family="Helvetica" font-weight="bold" svgx:z="186" x="390.871" y="722.077" font-size="7.97" xmlns:svgx="http://www.xml-cml.org/schema/svgx">z</text>
   <text stroke="none" fill="#000000" svgx:fontName="JNPFFC+AdvOT65f8a23b.I" svgx:width="447.0" font-family="Helvetica" font-weight="normal" font-style="italic" svgx:z="187" x="396.905" y="722.077" font-size="7.97" xmlns:svgx="http://www.xml-cml.org/schema/svgx">e</text>
   <text stroke="none" fill="#000000" svgx:fontName="JNPFFC+AdvOT65f8a23b.I" svgx:width="312.0" font-family="Helvetica" font-weight="normal" font-style="italic" svgx:z="188" x="400.468" y="722.077" font-size="7.97" xmlns:svgx="http://www.xml-cml.org/schema/svgx">t</text>
   <text stroke="none" fill="#000000" svgx:fontName="JNPFFC+AdvOT65f8a23b.I" svgx:width="520.0" font-family="Helvetica" font-weight="normal" font-style="italic" svgx:z="189" x="405.576" y="722.077" font-size="7.97" xmlns:svgx="http://www.xml-cml.org/schema/svgx">a</text>
   <text stroke="none" fill="#000000" svgx:fontName="JNPFFC+AdvOT65f8a23b.I" svgx:width="218.0" font-family="Helvetica" font-weight="normal" font-style="italic" svgx:z="190" x="409.721" y="722.077" font-size="7.97" xmlns:svgx="http://www.xml-cml.org/schema/svgx">l</text>
   <text stroke="none" fill="#000000" svgx:fontName="JNPFFB+AdvOT46dcae81" svgx:width="197.0" font-family="Helvetica" font-weight="bold" svgx:z="191" x="411.474" y="722.077" font-size="7.97" xmlns:svgx="http://www.xml-cml.org/schema/svgx">.</text>
   <text stroke="none" fill="#000000" svgx:fontName="JNPFFC+AdvOT65f8a23b.I" svgx:width="510.0" font-family="Helvetica" font-weight="normal" font-style="italic" svgx:z="192" x="415.723" y="722.077" font-size="7.97" xmlns:svgx="http://www.xml-cml.org/schema/svgx">B</text>
   <text stroke="none" fill="#000000" svgx:fontName="JNPFFC+AdvOT65f8a23b.I" svgx:width="770.0" font-family="Helvetica" font-weight="normal" font-style="italic" svgx:z="193" x="419.787" y="722.077" font-size="7.97" xmlns:svgx="http://www.xml-cml.org/schema/svgx">M</text>
   <text stroke="none" fill="#000000" svgx:fontName="JNPFFC+AdvOT65f8a23b.I" svgx:width="552.0" font-family="Helvetica" font-weight="normal" font-style="italic" svgx:z="194" x="425.924" y="722.077" font-size="7.97" xmlns:svgx="http://www.xml-cml.org/schema/svgx">C</text>
   <text stroke="none" fill="#000000" svgx:fontName="JNPFFC+AdvOT65f8a23b.I" svgx:width="229.0" font-family="Helvetica" font-weight="normal" font-style="italic" svgx:z="195" x="432.898" y="722.077" font-size="7.97" xmlns:svgx="http://www.xml-cml.org/schema/svgx">I</text>
   <text stroke="none" fill="#000000" svgx:fontName="JNPFFC+AdvOT65f8a23b.I" svgx:width="531.0" font-family="Helvetica" font-weight="normal" font-style="italic" svgx:z="196" x="434.723" y="722.077" font-size="7.97" xmlns:svgx="http://www.xml-cml.org/schema/svgx">n</text>
   <text stroke="none" fill="#000000" svgx:fontName="JNPFFC+AdvOT65f8a23b.I" svgx:width="281.0" font-family="Helvetica" font-weight="normal" font-style="italic" svgx:z="197" x="438.956" y="722.077" font-size="7.97" xmlns:svgx="http://www.xml-cml.org/schema/svgx">f</text>
   <text stroke="none" fill="#000000" svgx:fontName="JNPFFC+AdvOT65f8a23b.I" svgx:width="447.0" font-family="Helvetica" font-weight="normal" font-style="italic" svgx:z="198" x="441.195" y="722.077" font-size="7.97" xmlns:svgx="http://www.xml-cml.org/schema/svgx">e</text>
   <text stroke="none" fill="#000000" svgx:fontName="JNPFFC+AdvOT65f8a23b.I" svgx:width="416.0" font-family="Helvetica" font-weight="normal" font-style="italic" svgx:z="199" x="444.758" y="722.077" font-size="7.97" xmlns:svgx="http://www.xml-cml.org/schema/svgx">c</text>
   <text stroke="none" fill="#000000" svgx:fontName="JNPFFC+AdvOT65f8a23b.I" svgx:width="312.0" font-family="Helvetica" font-weight="normal" font-style="italic" svgx:z="200" x="448.074" y="722.077" font-size="7.97" xmlns:svgx="http://www.xml-cml.org/schema/svgx">t</text>
   <text stroke="none" fill="#000000" svgx:fontName="JNPFFC+AdvOT65f8a23b.I" svgx:width="218.0" font-family="Helvetica" font-weight="normal" font-style="italic" svgx:z="201" x="450.56" y="722.077" font-size="7.97" xmlns:svgx="http://www.xml-cml.org/schema/svgx">i</text>
   <text stroke="none" fill="#000000" svgx:fontName="JNPFFC+AdvOT65f8a23b.I" svgx:width="520.0" font-family="Helvetica" font-weight="normal" font-style="italic" svgx:z="202" x="452.298" y="722.077" font-size="7.97" xmlns:svgx="http://www.xml-cml.org/schema/svgx">o</text>
   <text stroke="none" fill="#000000" svgx:fontName="JNPFFC+AdvOT65f8a23b.I" svgx:width="520.0" font-family="Helvetica" font-weight="normal" font-style="italic" svgx:z="203" x="456.442" y="722.077" font-size="7.97" xmlns:svgx="http://www.xml-cml.org/schema/svgx">u</text>
   <text stroke="none" fill="#000000" svgx:fontName="JNPFFC+AdvOT65f8a23b.I" svgx:width="364.0" font-family="Helvetica" font-weight="normal" font-style="italic" svgx:z="204" x="460.587" y="722.077" font-size="7.97" xmlns:svgx="http://www.xml-cml.org/schema/svgx">s</text>
   <text stroke="none" fill="#000000" svgx:fontName="JNPFFC+AdvOT65f8a23b.I" svgx:width="645.0" font-family="Helvetica" font-weight="normal" font-style="italic" svgx:z="205" x="466.118" y="722.077" font-size="7.97" xmlns:svgx="http://www.xml-cml.org/schema/svgx">D</text>
   <text stroke="none" fill="#000000" svgx:fontName="JNPFFC+AdvOT65f8a23b.I" svgx:width="218.0" font-family="Helvetica" font-weight="normal" font-style="italic" svgx:z="206" x="471.259" y="722.077" font-size="7.97" xmlns:svgx="http://www.xml-cml.org/schema/svgx">i</text>
   <text stroke="none" fill="#000000" svgx:fontName="JNPFFC+AdvOT65f8a23b.I" svgx:width="364.0" font-family="Helvetica" font-weight="normal" font-style="italic" svgx:z="207" x="472.996" y="722.077" font-size="7.97" xmlns:svgx="http://www.xml-cml.org/schema/svgx">s</text>
   <text stroke="none" fill="#000000" svgx:fontName="JNPFFC+AdvOT65f8a23b.I" svgx:width="447.0" font-family="Helvetica" font-weight="normal" font-style="italic" svgx:z="208" x="475.897" y="722.077" font-size="7.97" xmlns:svgx="http://www.xml-cml.org/schema/svgx">e</text>
   <text stroke="none" fill="#000000" svgx:fontName="JNPFFC+AdvOT65f8a23b.I" svgx:width="520.0" font-family="Helvetica" font-weight="normal" font-style="italic" svgx:z="209" x="479.46" y="722.077" font-size="7.97" xmlns:svgx="http://www.xml-cml.org/schema/svgx">a</text>
   <text stroke="none" fill="#000000" svgx:fontName="JNPFFC+AdvOT65f8a23b.I" svgx:width="364.0" font-family="Helvetica" font-weight="normal" font-style="italic" svgx:z="210" x="483.605" y="722.077" font-size="7.97" xmlns:svgx="http://www.xml-cml.org/schema/svgx">s</text>
   <text stroke="none" fill="#000000" svgx:fontName="JNPFFC+AdvOT65f8a23b.I" svgx:width="447.0" font-family="Helvetica" font-weight="normal" font-style="italic" svgx:z="211" x="486.506" y="722.077" font-size="7.97" xmlns:svgx="http://www.xml-cml.org/schema/svgx">e</text>
   <text stroke="none" fill="#000000" svgx:fontName="JNPFFC+AdvOT65f8a23b.I" svgx:width="364.0" font-family="Helvetica" font-weight="normal" font-style="italic" svgx:z="212" x="490.069" y="722.077" font-size="7.97" xmlns:svgx="http://www.xml-cml.org/schema/svgx">s</text>
   <text stroke="none" fill="#000000" svgx:fontName="JNPFFB+AdvOT46dcae81" svgx:width="510.0" font-family="Helvetica" font-weight="bold" svgx:z="213" x="495.6" y="722.077" font-size="7.97" xmlns:svgx="http://www.xml-cml.org/schema/svgx">2</text>
   <text stroke="none" fill="#000000" svgx:fontName="JNPFFB+AdvOT46dcae81" svgx:width="510.0" font-family="Helvetica" font-weight="bold" svgx:z="214" x="499.665" y="722.077" font-size="7.97" xmlns:svgx="http://www.xml-cml.org/schema/svgx">0</text>
   <text stroke="none" fill="#000000" svgx:fontName="JNPFFB+AdvOT46dcae81" svgx:width="510.0" font-family="Helvetica" font-weight="bold" svgx:z="215" x="503.729" y="722.077" font-size="7.97" xmlns:svgx="http://www.xml-cml.org/schema/svgx">1</text>
   <text stroke="none" fill="#000000" svgx:fontName="JNPFFB+AdvOT46dcae81" svgx:width="510.0" font-family="Helvetica" font-weight="bold" svgx:z="216" x="507.794" y="722.077" font-size="7.97" xmlns:svgx="http://www.xml-cml.org/schema/svgx">1</text>
   <text stroke="none" fill="#000000" svgx:fontName="JNPFFB+AdvOT46dcae81" svgx:width="197.0" font-family="Helvetica" font-weight="bold" svgx:z="217" x="511.859" y="722.077" font-size="7.97" xmlns:svgx="http://www.xml-cml.org/schema/svgx">,</text>
   <text stroke="none" fill="#000000" svgx:fontName="JNPFFA+AdvOT3b30f6db.B" svgx:width="552.0" font-family="Helvetica" font-weight="bold" svgx:z="218" x="516.067" y="722.077" font-size="7.97" xmlns:svgx="http://www.xml-cml.org/schema/svgx">1</text>
   <text stroke="none" fill="#000000" svgx:fontName="JNPFFA+AdvOT3b30f6db.B" svgx:width="552.0" font-family="Helvetica" font-weight="bold" svgx:z="219" x="520.467" y="722.077" font-size="7.97" xmlns:svgx="http://www.xml-cml.org/schema/svgx">1</text>
   <text stroke="none" fill="#000000" svgx:fontName="JNPFFB+AdvOT46dcae81" svgx:width="197.0" font-family="Helvetica" font-weight="bold" svgx:z="220" x="524.85" y="722.077" font-size="7.97" xmlns:svgx="http://www.xml-cml.org/schema/svgx">:</text>
   <text stroke="none" fill="#000000" svgx:fontName="JNPFFB+AdvOT46dcae81" svgx:width="510.0" font-family="Helvetica" font-weight="bold" svgx:z="221" x="526.421" y="722.077" font-size="7.97" xmlns:svgx="http://www.xml-cml.org/schema/svgx">2</text>
   <text stroke="none" fill="#000000" svgx:fontName="JNPFFB+AdvOT46dcae81" svgx:width="510.0" font-family="Helvetica" font-weight="bold" svgx:z="222" x="530.485" y="722.077" font-size="7.97" xmlns:svgx="http://www.xml-cml.org/schema/svgx">9</text>
   <text stroke="none" fill="#000000" svgx:fontName="JNPFFB+AdvOT46dcae81" svgx:width="510.0" font-family="Helvetica" font-weight="bold" svgx:z="223" x="534.55" y="722.077" font-size="7.97" xmlns:svgx="http://www.xml-cml.org/schema/svgx">0</text>
   <text stroke="none" fill="#000000" svgx:fontName="JNPFFB+AdvOT46dcae81" svgx:width="552.0" font-family="Helvetica" font-weight="bold" svgx:z="224" x="307.607" y="732.056" font-size="7.97" xmlns:svgx="http://www.xml-cml.org/schema/svgx">h</text>
   <text stroke="none" fill="#000000" svgx:fontName="JNPFFB+AdvOT46dcae81" svgx:width="322.0" font-family="Helvetica" font-weight="bold" svgx:z="225" x="312.006" y="732.056" font-size="7.97" xmlns:svgx="http://www.xml-cml.org/schema/svgx">t</text>
   <text stroke="none" fill="#000000" svgx:fontName="JNPFFB+AdvOT46dcae81" svgx:width="322.0" font-family="Helvetica" font-weight="bold" svgx:z="226" x="314.573" y="732.056" font-size="7.97" xmlns:svgx="http://www.xml-cml.org/schema/svgx">t</text>
   <text stroke="none" fill="#000000" svgx:fontName="JNPFFB+AdvOT46dcae81" svgx:width="562.0" font-family="Helvetica" font-weight="bold" svgx:z="227" x="317.139" y="732.056" font-size="7.97" xmlns:svgx="http://www.xml-cml.org/schema/svgx">p</text>
   <text stroke="none" fill="#000000" svgx:fontName="JNPFFB+AdvOT46dcae81" svgx:width="197.0" font-family="Helvetica" font-weight="bold" svgx:z="228" x="321.618" y="732.056" font-size="7.97" xmlns:svgx="http://www.xml-cml.org/schema/svgx">:</text>
   <text stroke="none" fill="#000000" svgx:fontName="JNPFFB+AdvOT46dcae81" svgx:width="333.0" font-family="Helvetica" font-weight="bold" svgx:z="229" x="323.188" y="732.056" font-size="7.97" xmlns:svgx="http://www.xml-cml.org/schema/svgx">/</text>
   <text stroke="none" fill="#000000" svgx:fontName="JNPFFB+AdvOT46dcae81" svgx:width="333.0" font-family="Helvetica" font-weight="bold" svgx:z="230" x="325.843" y="732.056" font-size="7.97" xmlns:svgx="http://www.xml-cml.org/schema/svgx">/</text>
   <text stroke="none" fill="#000000" svgx:fontName="JNPFFB+AdvOT46dcae81" svgx:width="729.0" font-family="Helvetica" font-weight="bold" svgx:z="231" x="328.497" y="732.056" font-size="7.97" xmlns:svgx="http://www.xml-cml.org/schema/svgx">w</text>
   <text stroke="none" fill="#000000" svgx:fontName="JNPFFB+AdvOT46dcae81" svgx:width="729.0" font-family="Helvetica" font-weight="bold" svgx:z="232" x="334.307" y="732.056" font-size="7.97" xmlns:svgx="http://www.xml-cml.org/schema/svgx">w</text>
   <text stroke="none" fill="#000000" svgx:fontName="JNPFFB+AdvOT46dcae81" svgx:width="729.0" font-family="Helvetica" font-weight="bold" svgx:z="233" x="340.037" y="732.056" font-size="7.97" xmlns:svgx="http://www.xml-cml.org/schema/svgx">w</text>
   <text stroke="none" fill="#000000" svgx:fontName="JNPFFB+AdvOT46dcae81" svgx:width="197.0" font-family="Helvetica" font-weight="bold" svgx:z="234" x="345.848" y="732.056" font-size="7.97" xmlns:svgx="http://www.xml-cml.org/schema/svgx">.</text>
   <text stroke="none" fill="#000000" svgx:fontName="JNPFFB+AdvOT46dcae81" svgx:width="562.0" font-family="Helvetica" font-weight="bold" svgx:z="235" x="347.418" y="732.056" font-size="7.97" xmlns:svgx="http://www.xml-cml.org/schema/svgx">b</text>
   <text stroke="none" fill="#000000" svgx:fontName="JNPFFB+AdvOT46dcae81" svgx:width="229.0" font-family="Helvetica" font-weight="bold" svgx:z="236" x="351.897" y="732.056" font-size="7.97" xmlns:svgx="http://www.xml-cml.org/schema/svgx">i</text>
   <text stroke="none" fill="#000000" svgx:fontName="JNPFFB+AdvOT46dcae81" svgx:width="541.0" font-family="Helvetica" font-weight="bold" svgx:z="237" x="353.722" y="732.056" font-size="7.97" xmlns:svgx="http://www.xml-cml.org/schema/svgx">o</text>
   <text stroke="none" fill="#000000" svgx:fontName="JNPFFB+AdvOT46dcae81" svgx:width="833.0" font-family="Helvetica" font-weight="bold" svgx:z="238" x="358.034" y="732.056" font-size="7.97" xmlns:svgx="http://www.xml-cml.org/schema/svgx">m</text>
   <text stroke="none" fill="#000000" svgx:fontName="JNPFFB+AdvOT46dcae81" svgx:width="500.0" font-family="Helvetica" font-weight="bold" svgx:z="239" x="364.673" y="732.056" font-size="7.97" xmlns:svgx="http://www.xml-cml.org/schema/svgx">e</text>
   <text stroke="none" fill="#000000" svgx:fontName="JNPFFB+AdvOT46dcae81" svgx:width="562.0" font-family="Helvetica" font-weight="bold" svgx:z="240" x="368.658" y="732.056" font-size="7.97" xmlns:svgx="http://www.xml-cml.org/schema/svgx">d</text>
   <text stroke="none" fill="#000000" svgx:fontName="JNPFFB+AdvOT46dcae81" svgx:width="447.0" font-family="Helvetica" font-weight="bold" svgx:z="241" x="373.138" y="732.056" font-size="7.97" xmlns:svgx="http://www.xml-cml.org/schema/svgx">c</text>
   <text stroke="none" fill="#000000" svgx:fontName="JNPFFB+AdvOT46dcae81" svgx:width="500.0" font-family="Helvetica" font-weight="bold" svgx:z="242" x="376.605" y="732.056" font-size="7.97" xmlns:svgx="http://www.xml-cml.org/schema/svgx">e</text>
   <text stroke="none" fill="#000000" svgx:fontName="JNPFFB+AdvOT46dcae81" svgx:width="552.0" font-family="Helvetica" font-weight="bold" svgx:z="243" x="380.59" y="732.056" font-size="7.97" xmlns:svgx="http://www.xml-cml.org/schema/svgx">n</text>
   <text stroke="none" fill="#000000" svgx:fontName="JNPFFB+AdvOT46dcae81" svgx:width="322.0" font-family="Helvetica" font-weight="bold" svgx:z="244" x="384.989" y="732.056" font-size="7.97" xmlns:svgx="http://www.xml-cml.org/schema/svgx">t</text>
   <text stroke="none" fill="#000000" svgx:fontName="JNPFFB+AdvOT46dcae81" svgx:width="322.0" font-family="Helvetica" font-weight="bold" svgx:z="245" x="387.556" y="732.056" font-size="7.97" xmlns:svgx="http://www.xml-cml.org/schema/svgx">r</text>
   <text stroke="none" fill="#000000" svgx:fontName="JNPFFB+AdvOT46dcae81" svgx:width="479.0" font-family="Helvetica" font-weight="bold" svgx:z="246" x="390.122" y="732.056" font-size="7.97" xmlns:svgx="http://www.xml-cml.org/schema/svgx">a</text>
   <text stroke="none" fill="#000000" svgx:fontName="JNPFFB+AdvOT46dcae81" svgx:width="229.0" font-family="Helvetica" font-weight="bold" svgx:z="247" x="393.94" y="732.056" font-size="7.97" xmlns:svgx="http://www.xml-cml.org/schema/svgx">l</text>
   <text stroke="none" fill="#000000" svgx:fontName="JNPFFB+AdvOT46dcae81" svgx:width="197.0" font-family="Helvetica" font-weight="bold" svgx:z="248" x="395.765" y="732.056" font-size="7.97" xmlns:svgx="http://www.xml-cml.org/schema/svgx">.</text>
   <text stroke="none" fill="#000000" svgx:fontName="JNPFFB+AdvOT46dcae81" svgx:width="447.0" font-family="Helvetica" font-weight="bold" svgx:z="249" x="397.335" y="732.056" font-size="7.97" xmlns:svgx="http://www.xml-cml.org/schema/svgx">c</text>
   <text stroke="none" fill="#000000" svgx:fontName="JNPFFB+AdvOT46dcae81" svgx:width="541.0" font-family="Helvetica" font-weight="bold" svgx:z="250" x="400.898" y="732.056" font-size="7.97" xmlns:svgx="http://www.xml-cml.org/schema/svgx">o</text>
   <text stroke="none" fill="#000000" svgx:fontName="JNPFFB+AdvOT46dcae81" svgx:width="833.0" font-family="Helvetica" font-weight="bold" svgx:z="251" x="405.21" y="732.056" font-size="7.97" xmlns:svgx="http://www.xml-cml.org/schema/svgx">m</text>
   <text stroke="none" fill="#000000" svgx:fontName="JNPFFB+AdvOT46dcae81" svgx:width="333.0" font-family="Helvetica" font-weight="bold" svgx:z="252" x="411.849" y="732.056" font-size="7.97" xmlns:svgx="http://www.xml-cml.org/schema/svgx">/</text>
   <text stroke="none" fill="#000000" svgx:fontName="JNPFFB+AdvOT46dcae81" svgx:width="510.0" font-family="Helvetica" font-weight="bold" svgx:z="253" x="414.503" y="732.056" font-size="7.97" xmlns:svgx="http://www.xml-cml.org/schema/svgx">1</text>
   <text stroke="none" fill="#000000" svgx:fontName="JNPFFB+AdvOT46dcae81" svgx:width="510.0" font-family="Helvetica" font-weight="bold" svgx:z="254" x="418.504" y="732.056" font-size="7.97" xmlns:svgx="http://www.xml-cml.org/schema/svgx">4</text>
   <text stroke="none" fill="#000000" svgx:fontName="JNPFFB+AdvOT46dcae81" svgx:width="510.0" font-family="Helvetica" font-weight="bold" svgx:z="255" x="422.569" y="732.056" font-size="7.97" xmlns:svgx="http://www.xml-cml.org/schema/svgx">7</text>
   <text stroke="none" fill="#000000" svgx:fontName="JNPFFB+AdvOT46dcae81" svgx:width="510.0" font-family="Helvetica" font-weight="bold" svgx:z="256" x="426.634" y="732.056" font-size="7.97" xmlns:svgx="http://www.xml-cml.org/schema/svgx">1</text>
   <text stroke="none" fill="#000000" svgx:fontName="JNPFFB+AdvOT46dcae81" svgx:width="302.0" font-family="Helvetica" font-weight="bold" svgx:z="257" x="430.698" y="732.056" font-size="7.97" xmlns:svgx="http://www.xml-cml.org/schema/svgx">-</text>
   <text stroke="none" fill="#000000" svgx:fontName="JNPFFB+AdvOT46dcae81" svgx:width="510.0" font-family="Helvetica" font-weight="bold" svgx:z="258" x="433.105" y="732.056" font-size="7.97" xmlns:svgx="http://www.xml-cml.org/schema/svgx">2</text>
   <text stroke="none" fill="#000000" svgx:fontName="JNPFFB+AdvOT46dcae81" svgx:width="510.0" font-family="Helvetica" font-weight="bold" svgx:z="259" x="437.17" y="732.056" font-size="7.97" xmlns:svgx="http://www.xml-cml.org/schema/svgx">3</text>
   <text stroke="none" fill="#000000" svgx:fontName="JNPFFB+AdvOT46dcae81" svgx:width="510.0" font-family="Helvetica" font-weight="bold" svgx:z="260" x="441.235" y="732.056" font-size="7.97" xmlns:svgx="http://www.xml-cml.org/schema/svgx">3</text>
   <text stroke="none" fill="#000000" svgx:fontName="JNPFFB+AdvOT46dcae81" svgx:width="510.0" font-family="Helvetica" font-weight="bold" svgx:z="261" x="445.3" y="732.056" font-size="7.97" xmlns:svgx="http://www.xml-cml.org/schema/svgx">4</text>
   <text stroke="none" fill="#000000" svgx:fontName="JNPFFB+AdvOT46dcae81" svgx:width="333.0" font-family="Helvetica" font-weight="bold" svgx:z="262" x="449.365" y="732.056" font-size="7.97" xmlns:svgx="http://www.xml-cml.org/schema/svgx">/</text>
   <text stroke="none" fill="#000000" svgx:fontName="JNPFFB+AdvOT46dcae81" svgx:width="510.0" font-family="Helvetica" font-weight="bold" svgx:z="263" x="452.019" y="732.056" font-size="7.97" xmlns:svgx="http://www.xml-cml.org/schema/svgx">1</text>
   <text stroke="none" fill="#000000" svgx:fontName="JNPFFB+AdvOT46dcae81" svgx:width="510.0" font-family="Helvetica" font-weight="bold" svgx:z="264" x="456.083" y="732.056" font-size="7.97" xmlns:svgx="http://www.xml-cml.org/schema/svgx">1</text>
   <text stroke="none" fill="#000000" svgx:fontName="JNPFFB+AdvOT46dcae81" svgx:width="333.0" font-family="Helvetica" font-weight="bold" svgx:z="265" x="460.061" y="732.056" font-size="7.97" xmlns:svgx="http://www.xml-cml.org/schema/svgx">/</text>
   <text stroke="none" fill="#000000" svgx:fontName="JNPFFB+AdvOT46dcae81" svgx:width="510.0" font-family="Helvetica" font-weight="bold" svgx:z="266" x="462.715" y="732.056" font-size="7.97" xmlns:svgx="http://www.xml-cml.org/schema/svgx">2</text>
   <text stroke="none" fill="#000000" svgx:fontName="JNPFFB+AdvOT46dcae81" svgx:width="510.0" font-family="Helvetica" font-weight="bold" svgx:z="267" x="466.779" y="732.056" font-size="7.97" xmlns:svgx="http://www.xml-cml.org/schema/svgx">9</text>
   <text stroke="none" fill="#000000" svgx:fontName="JNPFFB+AdvOT46dcae81" svgx:width="510.0" font-family="Helvetica" font-weight="bold" svgx:z="268" x="470.844" y="732.056" font-size="7.97" xmlns:svgx="http://www.xml-cml.org/schema/svgx">0</text>
   <text stroke="none" fill="#000000" svgx:fontName="JNPFFB+AdvOT46dcae81" svgx:width="281.0" font-family="Helvetica" font-weight="bold" svgx:z="269" x="477.579" y="732.056" font-size="7.97" xmlns:svgx="http://www.xml-cml.org/schema/svgx">(</text>
   <text stroke="none" fill="#000000" svgx:fontName="JNPFFB+AdvOT46dcae81" svgx:width="510.0" font-family="Helvetica" font-weight="bold" svgx:z="270" x="479.819" y="732.056" font-size="7.97" xmlns:svgx="http://www.xml-cml.org/schema/svgx">2</text>
   <text stroke="none" fill="#000000" svgx:fontName="JNPFFB+AdvOT46dcae81" svgx:width="510.0" font-family="Helvetica" font-weight="bold" svgx:z="271" x="483.883" y="732.056" font-size="7.97" xmlns:svgx="http://www.xml-cml.org/schema/svgx">6</text>
   <text stroke="none" fill="#000000" svgx:fontName="JNPFFB+AdvOT46dcae81" svgx:width="687.0" font-family="Helvetica" font-weight="bold" svgx:z="272" x="490.563" y="732.056" font-size="7.97" xmlns:svgx="http://www.xml-cml.org/schema/svgx">O</text>
   <text stroke="none" fill="#000000" svgx:fontName="JNPFFB+AdvOT46dcae81" svgx:width="447.0" font-family="Helvetica" font-weight="bold" svgx:z="273" x="496.038" y="732.056" font-size="7.97" xmlns:svgx="http://www.xml-cml.org/schema/svgx">c</text>
   <text stroke="none" fill="#000000" svgx:fontName="JNPFFB+AdvOT46dcae81" svgx:width="322.0" font-family="Helvetica" font-weight="bold" svgx:z="274" x="499.601" y="732.056" font-size="7.97" xmlns:svgx="http://www.xml-cml.org/schema/svgx">t</text>
   <text stroke="none" fill="#000000" svgx:fontName="JNPFFB+AdvOT46dcae81" svgx:width="541.0" font-family="Helvetica" font-weight="bold" svgx:z="275" x="502.167" y="732.056" font-size="7.97" xmlns:svgx="http://www.xml-cml.org/schema/svgx">o</text>
   <text stroke="none" fill="#000000" svgx:fontName="JNPFFB+AdvOT46dcae81" svgx:width="562.0" font-family="Helvetica" font-weight="bold" svgx:z="276" x="506.479" y="732.056" font-size="7.97" xmlns:svgx="http://www.xml-cml.org/schema/svgx">b</text>
   <text stroke="none" fill="#000000" svgx:fontName="JNPFFB+AdvOT46dcae81" svgx:width="500.0" font-family="Helvetica" font-weight="bold" svgx:z="277" x="510.958" y="732.056" font-size="7.97" xmlns:svgx="http://www.xml-cml.org/schema/svgx">e</text>
   <text stroke="none" fill="#000000" svgx:fontName="JNPFFB+AdvOT46dcae81" svgx:width="322.0" font-family="Helvetica" font-weight="bold" svgx:z="278" x="514.943" y="732.056" font-size="7.97" xmlns:svgx="http://www.xml-cml.org/schema/svgx">r</text>
   <text stroke="none" fill="#000000" svgx:fontName="JNPFFB+AdvOT46dcae81" svgx:width="510.0" font-family="Helvetica" font-weight="bold" svgx:z="279" x="520.1" y="732.056" font-size="7.97" xmlns:svgx="http://www.xml-cml.org/schema/svgx">2</text>
   <text stroke="none" fill="#000000" svgx:fontName="JNPFFB+AdvOT46dcae81" svgx:width="510.0" font-family="Helvetica" font-weight="bold" svgx:z="280" x="524.165" y="732.056" font-size="7.97" xmlns:svgx="http://www.xml-cml.org/schema/svgx">0</text>
   <text stroke="none" fill="#000000" svgx:fontName="JNPFFB+AdvOT46dcae81" svgx:width="510.0" font-family="Helvetica" font-weight="bold" svgx:z="281" x="528.23" y="732.056" font-size="7.97" xmlns:svgx="http://www.xml-cml.org/schema/svgx">1</text>
   <text stroke="none" fill="#000000" svgx:fontName="JNPFFB+AdvOT46dcae81" svgx:width="510.0" font-family="Helvetica" font-weight="bold" svgx:z="282" x="532.295" y="732.056" font-size="7.97" xmlns:svgx="http://www.xml-cml.org/schema/svgx">1</text>
   <text stroke="none" fill="#000000" svgx:fontName="JNPFFB+AdvOT46dcae81" svgx:width="281.0" font-family="Helvetica" font-weight="bold" svgx:z="283" x="536.359" y="732.056" font-size="7.97" xmlns:svgx="http://www.xml-cml.org/schema/svgx">)</text>
  </g>
 </g>
</svg>
